<?xml version="1.0" encoding="UTF-8" standalone="no"?>
<!-- Created with Inkscape (http://www.inkscape.org/) -->

<svg
   width="512"
   height="512"
   viewBox="0 0 512 512"
   version="1.1"
   id="svg1"
   xmlns:xlink="http://www.w3.org/1999/xlink"
   xmlns="http://www.w3.org/2000/svg"
   xmlns:svg="http://www.w3.org/2000/svg">
  <defs
     id="defs1">
    <linearGradient
       xlink:href="#linearGradient255"
       id="linearGradient266"
       gradientUnits="userSpaceOnUse"
       x1="76.35424"
       y1="116.72469"
       x2="124.74023"
       y2="116.72469" />
    <linearGradient
       id="linearGradient255">
      <stop
         style="stop-color:#0006cc;stop-opacity:1;"
         offset="0"
         id="stop255" />
      <stop
         style="stop-color:#6503d0;stop-opacity:1;"
         offset="0.5"
         id="stop257" />
      <stop
         style="stop-color:#ca00d5;stop-opacity:1;"
         offset="0.75"
         id="stop258" />
      <stop
         style="stop-color:#0f0010;stop-opacity:1;"
         offset="1"
         id="stop256" />
    </linearGradient>
    <linearGradient
       xlink:href="#linearGradient8"
       id="linearGradient9"
       x1="77.348923"
       y1="77.065926"
       x2="87.717346"
       y2="77.065926"
       gradientUnits="userSpaceOnUse"
       gradientTransform="matrix(4.4736904,0,0,4.4736904,-104.73439,-47.643144)" />
    <linearGradient
       id="linearGradient8">
      <stop
         style="stop-color:#d6d6d6;stop-opacity:1;"
         offset="0"
         id="stop8" />
      <stop
         style="stop-color:#414141;stop-opacity:1;"
         offset="1"
         id="stop9" />
    </linearGradient>
    <linearGradient
       xlink:href="#linearGradient10"
       id="linearGradient11"
       x1="65.835808"
       y1="84.646042"
       x2="83.491028"
       y2="70.620872"
       gradientUnits="userSpaceOnUse"
       gradientTransform="matrix(4.4736904,0,0,4.4736904,-106.06927,-47.643144)" />
    <linearGradient
       id="linearGradient10">
      <stop
         style="stop-color:#a4a9aa;stop-opacity:1;"
         offset="0.5"
         id="stop12" />
      <stop
         style="stop-color:#414141;stop-opacity:1;"
         offset="1"
         id="stop11" />
    </linearGradient>
    <linearGradient
       xlink:href="#linearGradient258"
       id="linearGradient260"
       x1="128.32326"
       y1="153.5668"
       x2="140.9258"
       y2="153.5668"
       gradientUnits="userSpaceOnUse" />
    <linearGradient
       id="linearGradient258">
      <stop
         style="stop-color:#0006cc;stop-opacity:1;"
         offset="0"
         id="stop259" />
      <stop
         style="stop-color:#6503d0;stop-opacity:1;"
         offset="0.5"
         id="stop261" />
      <stop
         style="stop-color:#ca00d5;stop-opacity:1;"
         offset="0.75"
         id="stop262" />
      <stop
         style="stop-color:#0f0010;stop-opacity:1;"
         offset="0.875"
         id="stop263" />
    </linearGradient>
    <linearGradient
       xlink:href="#linearGradient255"
       id="linearGradient1"
       gradientUnits="userSpaceOnUse"
       x1="76.35424"
       y1="116.72469"
       x2="124.74023"
       y2="116.72469" />
  </defs>
  <g
     id="layer1">
    <g
       id="g1"
       transform="matrix(1.110017,0,0,1.110017,-27.250284,-32.081272)">
      <path
         d="m 305.00478,165.74194 c -13.91813,0.38789 -13.64664,-2.0853 -18.06994,2.5915 0.54873,12.2941 -0.22432,16.61066 -0.22432,16.61066 12.63059,-1.59899 34.43403,-2.03345 34.43403,-2.03345 12.30985,6.9439 14.27782,9.06717 9.54915,29.2971 -1.99628,11.19498 -4.95424,15.84544 -6.51496,19.88548 -1.40072,3.62591 -4.35055,13.29234 -9.68051,16.05967 -2.83211,-0.2977 -5.2015,1.33009 -9.77083,3.31821 -4.06033,1.7666 -7.16493,5.32932 -10.45054,8.45988 -6.57123,6.26114 -13.56193,3.85629 -13.56193,3.85629 -18.0387,29.75255 -43.22078,33.9007 -43.22078,33.9007 -15.35804,4.86466 -48.86722,26.81787 -48.86722,26.81787 -13.00655,9.77515 -41.24724,49.4646 -41.24724,49.4646 13.71631,3.82272 -26.02544,71.73758 -26.02544,71.73758 3.30705,11.26032 18.77901,-3.49793 22.49703,-1.95984 -1.25526,7.68015 6.07003,10.02263 6.07003,10.02263 5.10777,-17.69802 7.65607,-15.03045 7.65607,-15.03045 1.28112,-0.39563 0.65197,-6.34428 1.53514,33.29909 l 7.73817,12.19401 c -2.33383,-26.14569 2.71075,-35.37881 2.71075,-35.37881 0,0 -3.27881,-18.17828 12.34528,-28.37827 29.51714,-47.88326 63.58009,-54.95177 63.58009,-54.95177 30.5467,-12.88665 58.56905,-33.06172 58.56905,-33.06172 14.12859,-11.95292 34.35632,-39.35031 34.35632,-39.35031 6.15105,-10.20116 6.1521,-9.99941 16.0986,-22.51511 5.2627,-6.62201 9.13122,-12.79997 11.55062,-10.0931 7.99479,3.93929 -11.93808,32.31212 -11.93808,32.31212 14.8204,-8.41645 32.0478,-61.33196 32.0478,-61.33196 4.10317,-15.4685 3.20106,-34.70323 -3.92902,-42.86349 0,0 -9.28113,-16.96062 -26.95141,-20.32957 0,0 -27.08888,-3.19652 -50.28582,-2.54973 z"
         style="stroke-width:2.13242;stroke-linecap:round;paint-order:stroke fill markers"
         id="path154" />
      <path
         style="fill:url(#linearGradient1);fill-opacity:1;stroke:#000000;stroke-width:0.561001;stroke-linecap:butt;stroke-linejoin:bevel;stroke-dasharray:none;stroke-opacity:1;paint-order:stroke markers fill"
         d="m 78.210962,92.731139 c -0.539506,4.312895 0.148649,8.772531 1.963129,12.722191 1.086248,2.36448 2.556855,4.53095 4.091657,6.63216 2.549089,3.48981 5.320681,6.8603 8.672108,9.58877 2.82736,2.30182 6.0175,4.10707 9.077174,6.08969 3.05966,1.98262 6.04487,4.19455 8.23889,7.10636 0.82242,1.09148 1.52375,2.2687 2.30946,3.3869 0.78571,1.11819 1.66937,2.18995 2.77876,2.98806 1.10939,0.7981 2.47009,1.30703 3.83249,1.19933 0.68119,-0.0539 1.35321,-0.26269 1.9292,-0.63034 0.57599,-0.36765 1.0529,-0.89631 1.33247,-1.51983 0.29395,-0.65559 0.3626,-1.41539 0.15981,-2.10466 -0.20339,-0.69132 -0.66828,-1.2884 -1.23973,-1.72743 -0.57145,-0.43903 -1.24574,-0.72883 -1.93778,-0.92978 -1.38408,-0.4019 -2.85246,-0.46267 -4.22551,-0.90078 -2.43376,-0.77656 -4.32912,-2.64485 -6.29175,-4.28018 -3.02808,-2.52311 -6.39876,-4.59545 -9.700769,-6.74767 -5.777254,-3.76557 -11.580826,-8.02608 -14.79473,-14.12748 -1.131707,-2.14847 -1.92265,-4.49457 -3.364429,-6.44854 -0.931949,-1.26302 -2.112249,-2.32757 -3.035943,-3.596634 -0.461847,-0.634534 -0.859493,-1.322881 -1.104215,-2.068567 -0.244721,-0.745686 -0.331869,-1.552499 -0.175311,-2.321541 0.186852,-0.917852 0.72758,-1.758984 1.485019,-2.310029 z"
         id="path263"
         transform="matrix(-3.1772277,0,0,3.1772277,590.15812,-86.059383)" />
      <path
         id="path30"
         style="fill:#000000;fill-opacity:1;stroke:none;stroke-width:1.78243;stroke-linecap:round;stroke-dasharray:none;stroke-opacity:1;paint-order:stroke fill markers"
         d="m 260.04319,35.081676 c -1.01614,-0.01525 -2.10955,0.0026 -3.35436,0.0624 -7.29765,0.350226 -14.17384,3.070771 -21.03245,5.331178 -4.57688,1.817892 -6.72358,2.545579 -11.10567,4.779507 -6.79385,3.463334 -12.94018,8.018001 -18.92263,12.708132 -3.67026,3.035628 -4.53436,3.614713 -7.89252,6.909025 -4.92319,4.829551 -9.26049,10.211276 -13.88207,15.31872 -6.24757,7.216225 -12.29053,14.77555 -19.87494,20.654822 -2.08457,1.44243 -3.03614,2.25546 -5.30983,3.27062 -3.60543,1.60985 -7.55851,1.78325 -11.43239,1.40545 -3.43324,-0.51379 -4.74708,-0.57697 -8.15357,-1.67307 -1.4377,-0.46261 -1.84038,-1.06972 -3.27226,-1.54993 -0.0948,-0.0318 -0.81601,-0.6781 -0.81601,-0.6781 0.0725,-0.15095 -0.9826,-0.86434 -0.61899,-0.66168 -1.35815,-1.433422 -0.43808,-0.32403 -1.64516,-1.860242 -1.14517,-1.4574 -1.44545,-2.11608 -2.74851,-3.43481 -3.60976,-3.6533 -11.82593,-7.596407 -14.01507,-8.917041 -1.53717,-0.826435 -2.75387,-1.646821 -4.50039,-1.966971 -2.87349,-0.52673 -5.67492,1.180963 -8.39984,1.751885 -4.105913,1.286831 -8.193523,2.517582 -11.514493,5.395207 -4.36559,3.1927 -9.00859,6.0784 -12.73933,10.046652 -4.800794,4.8293 -8.454072,10.61216 -12.319014,16.18892 -0.957553,1.5895 -1.823176,3.14994 -2.617153,4.71712 0.73631,-0.20992 1.522766,-0.32482 2.310121,-0.42033 1.257306,-0.11075 2.518582,-0.17757 3.779605,-0.22656 1.14296,-1.46229 2.278545,-2.93346 3.674521,-4.16709 0.9723,-0.85908 1.86791,-1.2625 2.60895,-1.32335 0.57302,-0.0471 1.04089,0.12295 1.39231,0.43181 0.44473,-0.42837 0.97809,-0.64198 1.51052,-0.64198 0.73418,0 1.46833,0.40715 1.9719,1.22156 2.44106,-3.34048 5.07764,-6.53063 8.03535,-9.43423 3.73415,-3.87031 6.55711,-7.20716 10.943123,-10.266662 3.30058,-2.54734 8.88571,-3.38521 12.8362,-4.63995 -0.28058,0.18018 -0.51217,0.3522 -0.23972,0.34972 0.0935,-8.4e-4 0.45171,-0.006 0.56973,-0.008 0.37171,0.8484 0.87715,1.69763 1.46784,2.36102 1.44848,1.62663 0.44084,0.75953 1.9013,2.38072 0.84716,0.69942 5.12524,2.370662 6.01419,3.016132 1.07553,0.78091 3.89482,2.82167 5.04714,3.48406 6.99867,4.02318 11.59994,6.37318 18.52037,8.36866 3.36739,0.97098 7.09672,-1.2155 10.49325,-0.7487 4.09344,0.35033 8.27228,0.12976 12.01526,-1.73218 2.19315,-1.09098 3.38179,-2.13887 5.35417,-3.62363 7.42502,-6.16115 14.53359,-12.939692 20.82722,-20.196741 4.59034,-5.115006 5.72816,-7.392014 10.64593,-12.204078 3.24475,-3.174994 4.63691,-4.943286 8.15521,-7.892506 5.87364,-4.702669 3.60795,-4.71203 10.33891,-8.12237 4.36967,-2.213987 9.4179,-8.001629 13.98551,-9.800368 6.81671,-2.249856 6.28431,-3.378779 13.53074,-3.667958 4.90659,-0.195812 8.53623,-0.821332 13.48307,-0.318523 5.98342,1.065398 6.99009,-0.185391 12.70488,1.518737 1.74474,0.520274 6.91139,2.204348 8.58372,2.924184 1.58754,0.683342 6.0368,2.188465 4.43798,1.531872 -5.84476,-2.400427 -1.90709,-2.496698 3.95365,2.620437 6.09265,5.830607 7.81198,5.117615 10.87909,12.832918 0.79802,2.460182 4.72911,8.02257 4.30501,10.705043 -0.47493,3.003814 -4.97897,4.108219 -6.96321,6.193163 -10.70154,9.146638 -22.56588,15.278568 -35.43502,20.54644 l 2.21983,2.55805 -0.80123,6.73498 1.31185,5.37387 12.6474,-7.69713 c 12.85242,-5.84648 20.68346,-11.633352 32.09212,-20.109722 2.2389,-2.285366 4.85078,-4.362809 5.5036,-7.661 0.57752,-2.917626 0.44634,-5.60483 -0.54839,-8.250437 -3.2043,-7.775855 -4.08506,-13.492663 -10.12382,-19.536704 -6.84763,-6.283743 -2.30534,-4.901575 -16.01816,-12.862472 -1.49075,-0.865438 -5.53184,-1.900649 -7.13395,-2.536702 -5.55872,-2.206832 -11.59704,-3.128641 -17.45153,-4.107977 -3.75679,-0.367377 -6.12147,-0.70741 -9.16989,-0.753622 z M 79.902917,216.25633 c -0.0283,-0.0351 -0.0803,0.0853 -0.0558,0.12316 0.08,0.12445 0.16741,0.24607 0.26434,0.35957 -0.0553,-0.19229 -0.12029,-0.37285 -0.20852,-0.48272 z m 0.44002,1.87996 c -0.0918,0.10132 -0.18155,0.20477 -0.2742,0.30539 0.10726,0.0458 0.21446,0.0908 0.32017,0.13957 -0.0137,-0.14844 -0.0311,-0.29662 -0.046,-0.44494 z m -24.884306,22.89762 c -0.217989,0.26117 -0.22822,0.26721 0.04597,0.19223 -0.01779,-0.0629 -0.02669,-0.13027 -0.04597,-0.19223 z" />
      <path
         style="fill:url(#linearGradient9);stroke:#000000;stroke-width:4.74767;stroke-linecap:round;stroke-dasharray:none;stroke-opacity:1;paint-order:stroke fill markers"
         d="m 285.03676,155.35304 0.27451,199.30536 c 0,0 -41.65251,89.38816 -41.63671,86.36569 l 1.49739,-286.40921 z"
         id="path1" />
      <path
         style="fill:url(#linearGradient11);fill-opacity:1;stroke:#000000;stroke-width:4.74767;stroke-linecap:round;stroke-dasharray:none;stroke-opacity:1;paint-order:stroke fill markers"
         d="m 256.95838,155.35305 14.73907,0.39149 -0.0896,189.44821 c 0,0 -12.78524,33.88627 -14.69049,37.18982 z"
         id="path2" />
      <path
         d="m 225.7239,166.80308 c 13.91814,0.38789 14.38804,-1.02416 18.81133,3.65265 0.007,10.17181 -0.33163,14.48837 -0.33163,14.48837 -12.6306,-1.59899 -34.61937,-0.97231 -34.61937,-0.97231 -12.30986,6.9439 -14.27784,9.06717 -9.54917,29.29711 1.99629,11.19497 4.95425,15.84546 6.51497,19.88546 1.40071,3.62595 4.35055,13.29238 9.68051,16.05968 2.83212,-0.29771 5.2015,1.33008 9.77083,3.3182 4.06035,1.7666 7.16494,5.32932 10.45054,8.45991 6.57125,6.26114 13.56194,3.8563 13.56194,3.8563 18.03871,29.75253 43.22079,33.9007 43.22079,33.9007 15.35805,4.86465 48.86722,26.81786 48.86722,26.81786 13.00655,9.77516 41.24725,49.46461 41.24725,49.46461 -13.71632,3.82268 26.02543,71.73757 26.02543,71.73757 -3.30705,11.26032 -18.779,-3.49797 -22.49703,-1.95987 1.25526,7.68018 -6.07002,10.02263 -6.07002,10.02263 -5.10778,-17.69798 -7.65608,-15.03045 -7.65608,-15.03045 -1.28112,-0.39562 -0.65197,-6.34426 -1.53514,33.29913 l -7.73817,12.19401 c 2.33383,-26.14573 -2.71075,-35.37881 -2.71075,-35.37881 0,0 3.27881,-18.17833 -12.34527,-28.3783 -29.51714,-47.88328 -63.5801,-54.95178 -63.5801,-54.95178 -30.5467,-12.88661 -58.56907,-33.06172 -58.56907,-33.06172 -14.12859,-11.95289 -34.35632,-39.35028 -34.35632,-39.35028 -6.15105,-10.20116 -6.1521,-9.99941 -16.09859,-22.51511 -5.2627,-6.62204 -9.13123,-12.8 -11.55063,-10.0931 -7.99479,3.93929 11.93809,32.31212 11.93809,32.31212 -14.8204,-8.41647 -32.04781,-61.33196 -32.04781,-61.33196 -4.10316,-15.46852 -3.20105,-34.70325 3.92902,-42.86351 0,0 9.28113,-16.96062 26.95141,-20.32956 0,0 27.08889,-3.19652 50.28582,-2.54974 z"
         style="stroke-width:2.13242;stroke-linecap:round;paint-order:stroke fill markers"
         id="path242" />
      <path
         style="fill:#000000;fill-opacity:1;stroke:#000000;stroke-width:3.3718;stroke-linecap:round;stroke-dasharray:none;stroke-opacity:1;paint-order:stroke fill markers"
         d="m 259.31758,144.18842 c 0,0 -0.59444,-61.757473 -0.0384,-60.460024 l 10.14333,12.857272 -0.0448,47.645792 z"
         id="path4" />
      <path
         style="fill:#000000;fill-opacity:1;stroke:#000000;stroke-width:2.95894;stroke-linecap:round;stroke-dasharray:none;stroke-opacity:1;paint-order:stroke fill markers"
         d="m 316.60553,153.40595 -133.18776,-0.81231 -15.44218,-6.56842 148.75903,-0.17051 z"
         id="path3" />
      <path
         style="fill:#ffffff;fill-opacity:1;stroke:#ffffff;stroke-width:1.78242;stroke-linecap:round;stroke-dasharray:none;stroke-opacity:1;paint-order:stroke fill markers"
         d="m 264.3782,140.73318 1.6682,0.71823 -1.71452,0.57922 -1.57547,-0.64873 z"
         id="path19" />
      <path
         style="fill:#ffffff;fill-opacity:1;stroke:#ffffff;stroke-width:1.78242;stroke-linecap:round;stroke-dasharray:none;stroke-opacity:1;paint-order:stroke fill markers"
         d="m 264.47088,136.58597 1.6682,0.71823 -1.71452,0.57922 -1.57546,-0.64872 z"
         id="path20" />
      <path
         style="fill:#ffffff;fill-opacity:1;stroke:#ffffff;stroke-width:1.78242;stroke-linecap:round;stroke-dasharray:none;stroke-opacity:1;paint-order:stroke fill markers"
         d="m 264.51723,132.71679 1.66821,0.71823 -1.71453,0.57922 -1.57546,-0.64873 z"
         id="path21" />
      <path
         style="fill:#ffffff;fill-opacity:1;stroke:#ffffff;stroke-width:1.78242;stroke-linecap:round;stroke-dasharray:none;stroke-opacity:1;paint-order:stroke fill markers"
         d="m 264.3782,128.93757 1.6682,0.71823 -1.71452,0.57923 -1.57547,-0.64873 z"
         id="path22" />
      <path
         style="fill:#ffffff;fill-opacity:1;stroke:#ffffff;stroke-width:1.78242;stroke-linecap:round;stroke-dasharray:none;stroke-opacity:1;paint-order:stroke fill markers"
         d="m 264.47088,124.79037 1.6682,0.71823 -1.71452,0.57922 -1.57546,-0.64873 z"
         id="path23" />
      <path
         style="fill:#ffffff;fill-opacity:1;stroke:#ffffff;stroke-width:1.78242;stroke-linecap:round;stroke-dasharray:none;stroke-opacity:1;paint-order:stroke fill markers"
         d="m 264.51723,120.92118 1.66821,0.71823 -1.71453,0.57923 -1.57546,-0.64873 z"
         id="path24" />
      <path
         style="fill:#ffffff;fill-opacity:1;stroke:#ffffff;stroke-width:1.78242;stroke-linecap:round;stroke-dasharray:none;stroke-opacity:1;paint-order:stroke fill markers"
         d="m 264.3782,117.2075 1.6682,0.71823 -1.71452,0.57922 -1.57547,-0.64872 z"
         id="path25" />
      <path
         style="fill:#ffffff;fill-opacity:1;stroke:#ffffff;stroke-width:1.78242;stroke-linecap:round;stroke-dasharray:none;stroke-opacity:1;paint-order:stroke fill markers"
         d="m 264.47088,113.06029 1.6682,0.71823 -1.71452,0.57923 -1.57546,-0.64873 z"
         id="path26" />
      <path
         style="fill:#ffffff;fill-opacity:1;stroke:#ffffff;stroke-width:1.78242;stroke-linecap:round;stroke-dasharray:none;stroke-opacity:1;paint-order:stroke fill markers"
         d="m 264.51723,109.19111 1.66821,0.71823 -1.71453,0.57922 -1.57546,-0.64872 z"
         id="path27" />
      <path
         style="fill:#ffffff;fill-opacity:1;stroke:#ffffff;stroke-width:1.78242;stroke-linecap:round;stroke-dasharray:none;stroke-opacity:1;paint-order:stroke fill markers"
         d="m 264.3782,105.4119 1.6682,0.71822 -1.71452,0.57923 -1.57547,-0.64873 z"
         id="path28" />
      <path
         style="fill:#ffffff;fill-opacity:1;stroke:#ffffff;stroke-width:1.78242;stroke-linecap:round;stroke-dasharray:none;stroke-opacity:1;paint-order:stroke fill markers"
         d="m 264.47088,101.26469 1.6682,0.71823 -1.71452,0.57922 -1.57546,-0.64872 z"
         id="path29" />
      <path
         style="fill:none;fill-opacity:1;stroke:none;stroke-width:0.561001;stroke-linecap:butt;stroke-linejoin:bevel;stroke-dasharray:none;stroke-opacity:1;paint-order:stroke markers fill"
         d="m 132.33163,170.7771 c 1.05952,-3.07001 3.91618,-5.2275 6.75241,-6.48742 3.79659,-1.68652 7.78249,-3.51862 12.04081,-3.09553 2.85517,0.28367 5.75801,0.0274 8.45449,1.32565 3.31496,1.59605 7.59192,1.18344 10.19562,4.18558 4.66593,5.37996 4.74863,12.83591 5.78096,19.49653 0.84179,5.4312 2.79876,11.10099 1.43283,16.45145 -0.0988,0.38712 -0.10302,1.02068 -0.60158,1.12414"
         id="path155"
         transform="matrix(3.1772277,0,0,3.1772277,-76.549993,-91.301876)" />
      <path
         style="fill:url(#linearGradient260);fill-opacity:1;stroke:#000000;stroke-width:0.561001;stroke-linecap:butt;stroke-linejoin:bevel;stroke-dasharray:none;stroke-opacity:1;paint-order:stroke markers fill"
         d="m 128.37158,145.36679 c 2.0476,0.12684 4.00226,1.30392 5.07212,3.0544 0.57227,0.93633 0.89417,2.00195 1.16792,3.06462 0.27374,1.06268 0.50707,2.14156 0.92432,3.15651 0.69668,1.69464 1.89367,3.18107 2.34783,4.95615 0.10849,0.42404 0.17396,0.86289 0.35067,1.26333 0.0883,0.20021 0.2049,0.38983 0.35854,0.54568 0.15363,0.15586 0.34579,0.27702 0.55819,0.32973 0.20793,0.0516 0.43104,0.0358 0.63209,-0.0382 0.20105,-0.074 0.37975,-0.20522 0.5159,-0.37063 0.27228,-0.33084 0.36475,-0.78927 0.29185,-1.2115 -0.0542,-0.31397 -0.19298,-0.60905 -0.37189,-0.8727 -0.1789,-0.26365 -0.39754,-0.49792 -0.62413,-0.72191 -0.45319,-0.44798 -0.95159,-0.87178 -1.2517,-1.43393 -0.34975,-0.6551 -0.39171,-1.4237 -0.46641,-2.16255 -0.11906,-1.1777 -0.34128,-2.35077 -0.75399,-3.46019 -0.41271,-1.10942 -1.02109,-2.15593 -1.85199,-2.99898 -1.04526,-1.06056 -2.40331,-1.76364 -3.80206,-2.27437 -1.00499,-0.36696 -2.04294,-0.6436 -3.09726,-0.82549 z"
         id="path252"
         transform="matrix(3.1772277,0,0,3.1772277,-78.12274,-122.75681)" />
      <path
         style="fill:url(#linearGradient266);fill-opacity:1;stroke:#000000;stroke-width:0.561001;stroke-linecap:butt;stroke-linejoin:bevel;stroke-dasharray:none;stroke-opacity:1;paint-order:stroke markers fill"
         d="m 78.210962,92.731139 c -0.539506,4.312895 0.148649,8.772531 1.963129,12.722191 1.086248,2.36448 2.556855,4.53095 4.091657,6.63216 2.549089,3.48981 5.320681,6.8603 8.672108,9.58877 2.82736,2.30182 6.0175,4.10707 9.077174,6.08969 3.05966,1.98262 6.04487,4.19455 8.23889,7.10636 0.82242,1.09148 1.52375,2.2687 2.30946,3.3869 0.78571,1.11819 1.66937,2.18995 2.77876,2.98806 1.10939,0.7981 2.47009,1.30703 3.83249,1.19933 0.68119,-0.0539 1.35321,-0.26269 1.9292,-0.63034 0.57599,-0.36765 1.0529,-0.89631 1.33247,-1.51983 0.29395,-0.65559 0.3626,-1.41539 0.15981,-2.10466 -0.20339,-0.69132 -0.66828,-1.2884 -1.23973,-1.72743 -0.57145,-0.43903 -1.24574,-0.72883 -1.93778,-0.92978 -1.38408,-0.4019 -2.85246,-0.46267 -4.22551,-0.90078 -2.43376,-0.77656 -4.32912,-2.64485 -6.29175,-4.28018 -3.02808,-2.52311 -6.39876,-4.59545 -9.700769,-6.74767 -5.777254,-3.76557 -11.580826,-8.02608 -14.79473,-14.12748 -1.131707,-2.14847 -1.92265,-4.49457 -3.364429,-6.44854 -0.931949,-1.26302 -2.112249,-2.32757 -3.035943,-3.596634 -0.461847,-0.634534 -0.859493,-1.322881 -1.104215,-2.068567 -0.244721,-0.745686 -0.331869,-1.552499 -0.175311,-2.321541 0.186852,-0.917852 0.72758,-1.758984 1.485019,-2.310029 z"
         id="path253"
         transform="matrix(3.1772277,0,0,3.1772277,-76.549993,-91.301876)" />
    </g>
  </g>
</svg>
