<?xml version="1.0" encoding="UTF-8" standalone="no"?>
<!-- Created with Inkscape (http://www.inkscape.org/) -->

<svg
   width="210mm"
   height="297mm"
   viewBox="0 0 210 297"
   version="1.1"
   id="svg1"
   inkscape:version="1.3.2 (091e20e, 2023-11-25, custom)"
   sodipodi:docname="Logo.svg"
   inkscape:export-filename="Logo.png"
   inkscape:export-xdpi="96"
   inkscape:export-ydpi="96"
   xmlns:inkscape="http://www.inkscape.org/namespaces/inkscape"
   xmlns:sodipodi="http://sodipodi.sourceforge.net/DTD/sodipodi-0.dtd"
   xmlns:xlink="http://www.w3.org/1999/xlink"
   xmlns="http://www.w3.org/2000/svg"
   xmlns:svg="http://www.w3.org/2000/svg">
  <sodipodi:namedview
     id="namedview1"
     pagecolor="#ffffff"
     bordercolor="#999999"
     borderopacity="1"
     inkscape:showpageshadow="2"
     inkscape:pageopacity="0"
     inkscape:pagecheckerboard="0"
     inkscape:deskcolor="#d1d1d1"
     inkscape:document-units="mm"
     showguides="false"
     inkscape:zoom="0.80175781"
     inkscape:cx="362.32887"
     inkscape:cy="391.01583"
     inkscape:window-width="1920"
     inkscape:window-height="1017"
     inkscape:window-x="-8"
     inkscape:window-y="-8"
     inkscape:window-maximized="1"
     inkscape:current-layer="layer1" />
  <defs
     id="defs1">
    <inkscape:path-effect
       effect="spiro"
       id="path-effect268"
       is_visible="true"
       lpeversion="1" />
    <inkscape:path-effect
       effect="simplify"
       id="path-effect267"
       is_visible="true"
       lpeversion="1.3"
       threshold="78.9474"
       steps="1"
       smooth_angles="360"
       helper_size="0"
       simplify_individual_paths="false"
       simplify_just_coalesce="false" />
    <inkscape:path-effect
       effect="spiro"
       id="path-effect266"
       is_visible="true"
       lpeversion="1" />
    <inkscape:path-effect
       effect="simplify"
       id="path-effect264"
       is_visible="true"
       lpeversion="1.3"
       threshold="78.9474"
       steps="1"
       smooth_angles="360"
       helper_size="0"
       simplify_individual_paths="false"
       simplify_just_coalesce="false" />
    <linearGradient
       id="linearGradient258"
       inkscape:collect="always">
      <stop
         style="stop-color:#0006cc;stop-opacity:1;"
         offset="0"
         id="stop259" />
      <stop
         style="stop-color:#6503d0;stop-opacity:1;"
         offset="0.5"
         id="stop261" />
      <stop
         style="stop-color:#ca00d5;stop-opacity:1;"
         offset="0.75"
         id="stop262" />
      <stop
         style="stop-color:#0f0010;stop-opacity:1;"
         offset="0.875"
         id="stop263" />
    </linearGradient>
    <linearGradient
       id="linearGradient255"
       inkscape:collect="always">
      <stop
         style="stop-color:#0006cc;stop-opacity:1;"
         offset="0"
         id="stop255" />
      <stop
         style="stop-color:#6503d0;stop-opacity:1;"
         offset="0.5"
         id="stop257" />
      <stop
         style="stop-color:#ca00d5;stop-opacity:1;"
         offset="0.75"
         id="stop258" />
      <stop
         style="stop-color:#0f0010;stop-opacity:1;"
         offset="1"
         id="stop256" />
    </linearGradient>
    <inkscape:path-effect
       effect="spiro"
       id="path-effect255"
       is_visible="true"
       lpeversion="1" />
    <inkscape:path-effect
       effect="simplify"
       id="path-effect254"
       is_visible="true"
       lpeversion="1.3"
       threshold="78.9474"
       steps="1"
       smooth_angles="360"
       helper_size="0"
       simplify_individual_paths="false"
       simplify_just_coalesce="false" />
    <inkscape:path-effect
       effect="spiro"
       id="path-effect253"
       is_visible="true"
       lpeversion="1" />
    <inkscape:path-effect
       effect="simplify"
       id="path-effect252"
       is_visible="true"
       lpeversion="1.3"
       threshold="78.9474"
       steps="1"
       smooth_angles="360"
       helper_size="0"
       simplify_individual_paths="false"
       simplify_just_coalesce="false" />
    <inkscape:path-effect
       effect="spiro"
       id="path-effect248"
       is_visible="true"
       lpeversion="1" />
    <inkscape:path-effect
       effect="simplify"
       id="path-effect247"
       is_visible="true"
       lpeversion="1.3"
       threshold="78.9474"
       steps="1"
       smooth_angles="360"
       helper_size="0"
       simplify_individual_paths="false"
       simplify_just_coalesce="false" />
    <inkscape:path-effect
       effect="spiro"
       id="path-effect246"
       is_visible="true"
       lpeversion="1" />
    <inkscape:path-effect
       effect="simplify"
       id="path-effect245"
       is_visible="true"
       lpeversion="1.3"
       threshold="78.9474"
       steps="1"
       smooth_angles="360"
       helper_size="0"
       simplify_individual_paths="false"
       simplify_just_coalesce="false" />
    <inkscape:path-effect
       effect="spiro"
       id="path-effect166"
       is_visible="true"
       lpeversion="1" />
    <inkscape:path-effect
       effect="simplify"
       id="path-effect165"
       is_visible="true"
       lpeversion="1.3"
       threshold="78.9474"
       steps="1"
       smooth_angles="360"
       helper_size="0"
       simplify_individual_paths="false"
       simplify_just_coalesce="false" />
    <inkscape:path-effect
       effect="spiro"
       id="path-effect162"
       is_visible="true"
       lpeversion="1" />
    <inkscape:path-effect
       effect="simplify"
       id="path-effect161"
       is_visible="true"
       lpeversion="1.3"
       threshold="78.9474"
       steps="1"
       smooth_angles="360"
       helper_size="0"
       simplify_individual_paths="false"
       simplify_just_coalesce="false" />
    <inkscape:path-effect
       effect="simplify"
       id="path-effect156"
       is_visible="true"
       lpeversion="1.3"
       threshold="78.9474"
       steps="1"
       smooth_angles="360"
       helper_size="0"
       simplify_individual_paths="false"
       simplify_just_coalesce="false" />
    <inkscape:path-effect
       effect="simplify"
       id="path-effect155"
       is_visible="true"
       lpeversion="1.3"
       threshold="78.9474"
       steps="1"
       smooth_angles="360"
       helper_size="0"
       simplify_individual_paths="false"
       simplify_just_coalesce="false" />
    <inkscape:path-effect
       effect="spiro"
       id="path-effect141"
       is_visible="true"
       lpeversion="1" />
    <inkscape:path-effect
       effect="simplify"
       id="path-effect140"
       is_visible="true"
       lpeversion="1.3"
       threshold="78.9474"
       steps="1"
       smooth_angles="360"
       helper_size="0"
       simplify_individual_paths="false"
       simplify_just_coalesce="false" />
    <inkscape:path-effect
       effect="spiro"
       id="path-effect139"
       is_visible="true"
       lpeversion="1" />
    <inkscape:path-effect
       effect="simplify"
       id="path-effect138"
       is_visible="true"
       lpeversion="1.3"
       threshold="78.9474"
       steps="1"
       smooth_angles="360"
       helper_size="0"
       simplify_individual_paths="false"
       simplify_just_coalesce="false" />
    <inkscape:path-effect
       effect="spiro"
       id="path-effect120"
       is_visible="true"
       lpeversion="1" />
    <inkscape:path-effect
       effect="simplify"
       id="path-effect119"
       is_visible="true"
       lpeversion="1.3"
       threshold="78.9474"
       steps="1"
       smooth_angles="360"
       helper_size="0"
       simplify_individual_paths="false"
       simplify_just_coalesce="false" />
    <inkscape:path-effect
       effect="spiro"
       id="path-effect118"
       is_visible="true"
       lpeversion="1" />
    <inkscape:path-effect
       effect="simplify"
       id="path-effect117"
       is_visible="true"
       lpeversion="1.3"
       threshold="78.9474"
       steps="1"
       smooth_angles="360"
       helper_size="0"
       simplify_individual_paths="false"
       simplify_just_coalesce="false" />
    <inkscape:path-effect
       effect="spiro"
       id="path-effect116"
       is_visible="true"
       lpeversion="1" />
    <inkscape:path-effect
       effect="simplify"
       id="path-effect115"
       is_visible="true"
       lpeversion="1.3"
       threshold="78.9474"
       steps="1"
       smooth_angles="360"
       helper_size="0"
       simplify_individual_paths="false"
       simplify_just_coalesce="false" />
    <inkscape:path-effect
       effect="spiro"
       id="path-effect108"
       is_visible="true"
       lpeversion="1" />
    <inkscape:path-effect
       effect="simplify"
       id="path-effect107"
       is_visible="true"
       lpeversion="1.3"
       threshold="78.9474"
       steps="1"
       smooth_angles="360"
       helper_size="0"
       simplify_individual_paths="false"
       simplify_just_coalesce="false" />
    <inkscape:path-effect
       effect="spiro"
       id="path-effect104"
       is_visible="true"
       lpeversion="1" />
    <inkscape:path-effect
       effect="simplify"
       id="path-effect103"
       is_visible="true"
       lpeversion="1.3"
       threshold="78.9474"
       steps="1"
       smooth_angles="360"
       helper_size="0"
       simplify_individual_paths="false"
       simplify_just_coalesce="false" />
    <inkscape:path-effect
       effect="spiro"
       id="path-effect102"
       is_visible="true"
       lpeversion="1" />
    <inkscape:path-effect
       effect="simplify"
       id="path-effect101"
       is_visible="true"
       lpeversion="1.3"
       threshold="78.9474"
       steps="1"
       smooth_angles="360"
       helper_size="0"
       simplify_individual_paths="false"
       simplify_just_coalesce="false" />
    <inkscape:path-effect
       effect="spiro"
       id="path-effect97"
       is_visible="true"
       lpeversion="1" />
    <inkscape:path-effect
       effect="simplify"
       id="path-effect96"
       is_visible="true"
       lpeversion="1.3"
       threshold="78.9474"
       steps="1"
       smooth_angles="360"
       helper_size="0"
       simplify_individual_paths="false"
       simplify_just_coalesce="false" />
    <inkscape:path-effect
       effect="spiro"
       id="path-effect95"
       is_visible="true"
       lpeversion="1" />
    <inkscape:path-effect
       effect="simplify"
       id="path-effect94"
       is_visible="true"
       lpeversion="1.3"
       threshold="78.9474"
       steps="1"
       smooth_angles="360"
       helper_size="0"
       simplify_individual_paths="false"
       simplify_just_coalesce="false" />
    <inkscape:path-effect
       effect="spiro"
       id="path-effect93"
       is_visible="true"
       lpeversion="1" />
    <inkscape:path-effect
       effect="simplify"
       id="path-effect92"
       is_visible="true"
       lpeversion="1.3"
       threshold="78.9474"
       steps="1"
       smooth_angles="360"
       helper_size="0"
       simplify_individual_paths="false"
       simplify_just_coalesce="false" />
    <inkscape:path-effect
       effect="spiro"
       id="path-effect88"
       is_visible="true"
       lpeversion="1" />
    <inkscape:path-effect
       effect="simplify"
       id="path-effect87"
       is_visible="true"
       lpeversion="1.3"
       threshold="78.9474"
       steps="1"
       smooth_angles="360"
       helper_size="0"
       simplify_individual_paths="false"
       simplify_just_coalesce="false" />
    <inkscape:path-effect
       effect="spiro"
       id="path-effect86"
       is_visible="true"
       lpeversion="1" />
    <inkscape:path-effect
       effect="simplify"
       id="path-effect85"
       is_visible="true"
       lpeversion="1.3"
       threshold="78.9474"
       steps="1"
       smooth_angles="360"
       helper_size="0"
       simplify_individual_paths="false"
       simplify_just_coalesce="false" />
    <inkscape:path-effect
       effect="spiro"
       id="path-effect82"
       is_visible="true"
       lpeversion="1" />
    <inkscape:path-effect
       effect="simplify"
       id="path-effect81"
       is_visible="true"
       lpeversion="1.3"
       threshold="78.9474"
       steps="1"
       smooth_angles="360"
       helper_size="0"
       simplify_individual_paths="false"
       simplify_just_coalesce="false" />
    <inkscape:path-effect
       effect="spiro"
       id="path-effect77"
       is_visible="true"
       lpeversion="1" />
    <inkscape:path-effect
       effect="simplify"
       id="path-effect76"
       is_visible="true"
       lpeversion="1.3"
       threshold="78.9474"
       steps="1"
       smooth_angles="360"
       helper_size="0"
       simplify_individual_paths="false"
       simplify_just_coalesce="false" />
    <inkscape:path-effect
       effect="fillet_chamfer"
       id="path-effect72"
       is_visible="true"
       lpeversion="1"
       nodesatellites_param="F,0,0,1,0,0,0,1 @ F,0,0,1,0,0,0,1 @ F,0,0,1,0,0,0,1 @ F,0,0,1,0,0,0,1 @ F,0,0,1,0,0,0,1 @ F,0,0,1,0,0,0,1 @ F,0,0,1,0,0,0,1 @ F,0,0,1,0,0,0,1 @ F,0,0,1,0,0,0,1"
       radius="0"
       unit="px"
       method="auto"
       mode="F"
       chamfer_steps="1"
       flexible="false"
       use_knot_distance="true"
       apply_no_radius="true"
       apply_with_radius="true"
       only_selected="false"
       hide_knots="false" />
    <inkscape:path-effect
       effect="spiro"
       id="path-effect71"
       is_visible="true"
       lpeversion="1" />
    <inkscape:path-effect
       effect="simplify"
       id="path-effect70"
       is_visible="true"
       lpeversion="1.3"
       threshold="78.9474"
       steps="1"
       smooth_angles="360"
       helper_size="0"
       simplify_individual_paths="false"
       simplify_just_coalesce="false" />
    <inkscape:path-effect
       effect="spiro"
       id="path-effect66"
       is_visible="true"
       lpeversion="1" />
    <inkscape:path-effect
       effect="simplify"
       id="path-effect65"
       is_visible="true"
       lpeversion="1.3"
       threshold="78.9474"
       steps="1"
       smooth_angles="360"
       helper_size="0"
       simplify_individual_paths="false"
       simplify_just_coalesce="false" />
    <inkscape:path-effect
       effect="spiro"
       id="path-effect63"
       is_visible="true"
       lpeversion="1" />
    <inkscape:path-effect
       effect="simplify"
       id="path-effect62"
       is_visible="true"
       lpeversion="1.3"
       threshold="78.9474"
       steps="1"
       smooth_angles="360"
       helper_size="0"
       simplify_individual_paths="false"
       simplify_just_coalesce="false" />
    <inkscape:path-effect
       effect="spiro"
       id="path-effect61"
       is_visible="true"
       lpeversion="1" />
    <inkscape:path-effect
       effect="simplify"
       id="path-effect60"
       is_visible="true"
       lpeversion="1.3"
       threshold="78.9474"
       steps="1"
       smooth_angles="360"
       helper_size="0"
       simplify_individual_paths="false"
       simplify_just_coalesce="false" />
    <inkscape:path-effect
       effect="spiro"
       id="path-effect59"
       is_visible="true"
       lpeversion="1" />
    <inkscape:path-effect
       effect="simplify"
       id="path-effect58"
       is_visible="true"
       lpeversion="1.3"
       threshold="78.9474"
       steps="1"
       smooth_angles="360"
       helper_size="0"
       simplify_individual_paths="false"
       simplify_just_coalesce="false" />
    <inkscape:path-effect
       effect="spiro"
       id="path-effect57"
       is_visible="true"
       lpeversion="1" />
    <inkscape:path-effect
       effect="simplify"
       id="path-effect56"
       is_visible="true"
       lpeversion="1.3"
       threshold="78.9474"
       steps="1"
       smooth_angles="360"
       helper_size="0"
       simplify_individual_paths="false"
       simplify_just_coalesce="false" />
    <inkscape:path-effect
       effect="spiro"
       id="path-effect50"
       is_visible="true"
       lpeversion="1" />
    <inkscape:path-effect
       effect="simplify"
       id="path-effect49"
       is_visible="true"
       lpeversion="1.3"
       threshold="4.08163"
       steps="1"
       smooth_angles="360"
       helper_size="0"
       simplify_individual_paths="false"
       simplify_just_coalesce="false" />
    <inkscape:path-effect
       effect="spiro"
       id="path-effect48"
       is_visible="true"
       lpeversion="1" />
    <inkscape:path-effect
       effect="simplify"
       id="path-effect47"
       is_visible="true"
       lpeversion="1.3"
       threshold="4.08163"
       steps="1"
       smooth_angles="360"
       helper_size="0"
       simplify_individual_paths="false"
       simplify_just_coalesce="false" />
    <inkscape:path-effect
       effect="simplify"
       id="path-effect41"
       is_visible="true"
       lpeversion="1.3"
       threshold="4.08163"
       steps="1"
       smooth_angles="360"
       helper_size="0"
       simplify_individual_paths="false"
       simplify_just_coalesce="false" />
    <linearGradient
       id="linearGradient10"
       inkscape:collect="always">
      <stop
         style="stop-color:#a4a9aa;stop-opacity:1;"
         offset="0.5"
         id="stop12" />
      <stop
         style="stop-color:#414141;stop-opacity:1;"
         offset="1"
         id="stop11" />
    </linearGradient>
    <linearGradient
       id="linearGradient8"
       inkscape:collect="always">
      <stop
         style="stop-color:#d6d6d6;stop-opacity:1;"
         offset="0"
         id="stop8" />
      <stop
         style="stop-color:#414141;stop-opacity:1;"
         offset="1"
         id="stop9" />
    </linearGradient>
    <linearGradient
       inkscape:collect="always"
       xlink:href="#linearGradient8"
       id="linearGradient9"
       x1="77.348925"
       y1="77.065925"
       x2="87.71735"
       y2="77.065925"
       gradientUnits="userSpaceOnUse"
       gradientTransform="matrix(1.4080484,0,0,1.4080484,-8.8707526,13.741141)" />
    <linearGradient
       inkscape:collect="always"
       xlink:href="#linearGradient10"
       id="linearGradient11"
       x1="65.835808"
       y1="84.646042"
       x2="83.491028"
       y2="70.620872"
       gradientUnits="userSpaceOnUse"
       gradientTransform="matrix(1.4080484,0,0,1.4080484,-9.2908903,13.741141)" />
    <linearGradient
       inkscape:collect="always"
       xlink:href="#linearGradient255"
       id="linearGradient256"
       x1="76.354239"
       y1="116.72469"
       x2="124.74023"
       y2="116.72469"
       gradientUnits="userSpaceOnUse" />
    <linearGradient
       inkscape:collect="always"
       xlink:href="#linearGradient258"
       id="linearGradient260"
       x1="128.32326"
       y1="153.56681"
       x2="140.9258"
       y2="153.56681"
       gradientUnits="userSpaceOnUse" />
    <linearGradient
       inkscape:collect="always"
       xlink:href="#linearGradient255"
       id="linearGradient266"
       gradientUnits="userSpaceOnUse"
       x1="76.354239"
       y1="116.72469"
       x2="124.74023"
       y2="116.72469" />
  </defs>
  <g
     inkscape:label="Layer 1"
     inkscape:groupmode="layer"
     id="layer1">
    <path
       d="m 120.09047,80.901917 c -4.38059,0.122088 -4.29514,-0.656326 -5.68733,0.81565 0.17271,3.86944 -0.0706,5.228034 -0.0706,5.228034 3.97535,-0.503263 10.83776,-0.640006 10.83776,-0.640006 3.8744,2.185523 4.4938,2.853798 3.0055,9.220965 -0.62831,3.523503 -1.5593,4.98719 -2.05052,6.25875 -0.44086,1.14122 -1.36929,4.18363 -3.04684,5.05462 -0.89138,-0.0937 -1.63712,0.41863 -3.07527,1.04437 -1.27795,0.55602 -2.25509,1.67735 -3.2892,2.66266 -2.06823,1.97063 -4.26848,1.21373 -4.26848,1.21373 -5.6775,9.36431 -13.603298,10.6699 -13.603298,10.6699 -4.83379,1.5311 -15.38046,8.44065 -15.38046,8.44065 -4.09368,3.07663 -12.98215,15.56848 -12.98215,15.56848 4.31707,1.20316 -8.19124,22.57867 -8.19124,22.57867 1.04086,3.54407 5.9105,-1.10094 7.08071,-0.61684 -0.39508,2.41725 1.91048,3.15452 1.91048,3.15452 1.60762,-5.57027 2.40967,-4.73068 2.40967,-4.73068 0.40322,-0.12452 0.2052,-1.9968 0.48317,10.48055 l 2.43551,3.83794 c -0.73455,-8.22909 0.85318,-11.13512 0.85318,-11.13512 0,0 -1.03197,-5.72143 3.88555,-8.93177 9.29022,-15.07077 20.011188,-17.29551 20.011188,-17.29551 9.61426,-4.05594 18.43401,-10.40584 18.43401,-10.40584 4.44683,-3.76206 10.8133,-12.38511 10.8133,-12.38511 1.93598,-3.21071 1.93631,-3.14721 5.06687,-7.0864 1.65638,-2.08421 2.87396,-4.02866 3.63544,-3.1767 2.51628,1.23985 -3.75739,10.16991 -3.75739,10.16991 4.66457,-2.64899 10.08672,-19.30361 10.08672,-19.30361 1.29143,-4.868552 1.0075,-10.922486 -1.23662,-13.490845 0,0 -2.92114,-5.338183 -8.48268,-6.398526 0,0 -8.52595,-1.006069 -15.82695,-0.802499 z"
       style="stroke-width:0.671158;stroke-linecap:round;paint-order:stroke fill markers"
       id="path154"
       sodipodi:nodetypes="cccccscsscccccccccccccccsccccccc" />
    <path
       style="fill:url(#linearGradient266);fill-opacity:1;stroke:#000000;stroke-width:0.561001;stroke-linecap:butt;stroke-linejoin:bevel;stroke-dasharray:none;stroke-opacity:1;paint-order:stroke markers fill"
       d="m 78.210962,92.731139 c -0.512328,4.188222 0.122066,8.511001 1.816167,12.375411 1.018757,2.32389 2.405293,4.47006 3.915407,6.50914 2.680015,3.61879 5.760552,6.92578 8.99532,10.05857 4.734141,4.5849 9.843994,8.83494 15.563214,12.10967 3.53787,2.02572 7.28697,3.66614 10.80536,5.7255 0.86033,0.50357 1.74503,1.04517 2.73743,1.13945 0.4962,0.0471 1.01127,-0.0255 1.45062,-0.26088 0.43935,-0.23539 0.79554,-0.64289 0.91705,-1.12629 0.0724,-0.2881 0.0609,-0.5951 -0.0206,-0.88078 -0.0815,-0.28568 -0.23157,-0.55006 -0.42536,-0.77521 -0.38757,-0.45031 -0.93936,-0.73579 -1.51231,-0.89298 -1.14591,-0.31438 -2.3705,-0.14876 -3.54025,-0.35767 -1.06253,-0.18977 -2.0493,-0.68402 -2.95184,-1.27596 -0.90255,-0.59195 -1.73424,-1.28439 -2.60478,-1.92247 -2.30017,-1.68593 -4.85651,-2.98219 -7.3621,-4.34423 -8.461641,-4.59975 -16.800498,-10.3893 -21.2516,-18.93007 -1.1478,-2.2024 -2.026429,-4.57007 -3.528829,-6.54764 -0.988127,-1.30065 -2.223619,-2.40037 -3.184985,-3.720917 -0.480683,-0.660275 -0.892422,-1.378243 -1.142338,-2.155778 -0.249915,-0.777535 -0.332984,-1.618526 -0.160595,-2.416837 0.197424,-0.914245 0.73525,-1.750863 1.485019,-2.310029 z"
       id="path263"
       inkscape:path-effect="#path-effect264;#path-effect266"
       inkscape:original-d="m 78.210962,92.731139 c -2.022898,3.763005 -0.244605,8.634831 1.650018,12.045151 0.474409,0.85393 0.675008,1.94102 1.155015,2.80503 0.467122,0.84082 1.128202,1.3623 1.650021,2.14503 1.685478,2.52821 3.434368,5.02568 5.280065,7.42509 2.632943,3.42283 6.57661,5.3214 9.735118,8.0851 4.734371,4.14257 9.474531,8.20231 15.180191,11.05514 1.70345,0.85172 10.24812,6.23407 11.88014,2.97003 0.0492,-0.0984 -0.25222,0.0778 -0.33,0 -0.4939,-0.4939 -0.14923,-0.58454 -0.82501,-0.99001 -0.3125,-0.1875 -0.92345,0.0333 -1.32002,-0.165 -1.48592,-0.74296 -2.72951,-1.44726 -4.12505,-2.14503 -0.8135,-0.40675 -1.78594,-0.72797 -2.64003,-1.15501 -0.86709,-0.43355 -1.34565,-1.15041 -2.14503,-1.65002 -1.01843,-0.63652 -2.11049,-1.18454 -3.13504,-1.81502 -0.33629,-0.20696 -0.92842,-0.85949 -1.32001,-0.99002 -1.17913,-0.39304 -2.2567,-1.06978 -3.30004,-1.81502 -5.871104,-4.19364 -11.223143,-8.91311 -16.335202,-14.02517 -1.953406,-1.95341 -4.295947,-4.05139 -5.775071,-6.27008 -0.289433,-0.43415 -0.279091,-1.01001 -0.495007,-1.48502 -0.765185,-1.6834 -1.73805,-3.32649 -2.640033,-4.95006 -1.000797,-1.80143 -1.891361,-3.61772 -2.805033,-5.445065 -0.232048,-0.464097 -0.660927,-0.82777 -0.825011,-1.320017 -0.354777,-1.064328 1.865315,-0.788839 1.485019,-2.310029 z"
       transform="matrix(-1,0,0,1,209.83958,1.6500203)" />
    <path
       id="path30"
       style="fill:#000000;fill-opacity:1;stroke:none;stroke-width:0.561001;stroke-linecap:round;stroke-dasharray:none;stroke-opacity:1;paint-order:stroke fill markers"
       d="m 105.93927,39.777934 c -0.31982,-0.0048 -0.66396,8.07e-4 -1.05575,0.01964 -2.29686,0.11023 -4.46107,0.966494 -6.61975,1.677934 -1.440527,0.572163 -2.116178,0.801195 -3.495394,1.504301 -2.138298,1.090049 -4.072793,2.523584 -5.955709,3.999755 -1.155175,0.955433 -1.427141,1.137694 -2.484086,2.174545 -1.549525,1.520052 -2.914646,3.213895 -4.369243,4.821411 -1.966358,2.271233 -3.868318,4.650454 -6.255432,6.500895 -0.656099,0.453989 -0.955595,0.70988 -1.671216,1.029394 -1.134773,0.506683 -2.378963,0.561258 -3.59823,0.442351 -1.080575,-0.16171 -1.494093,-0.181595 -2.566251,-0.526583 -0.452501,-0.1456 -0.579242,-0.336684 -1.029911,-0.487826 -0.02982,-0.01 -0.256832,-0.213423 -0.256832,-0.213423 0.02281,-0.04751 -0.309262,-0.272044 -0.19482,-0.208256 -0.427464,-0.451157 -0.13788,-0.101988 -0.517798,-0.585494 -0.360429,-0.4587 -0.454941,-0.666013 -0.865064,-1.081071 -1.136134,-1.14984 -3.72209,-2.390891 -4.4111,-2.806547 -0.483809,-0.260112 -0.866754,-0.51832 -1.416451,-0.619084 -0.904404,-0.165783 -1.786126,0.371696 -2.643766,0.551388 -1.292292,0.405017 -2.578826,0.792383 -3.624069,1.698087 -1.374024,1.004869 -2.835361,1.913114 -4.009574,3.162081 -1.511,1.51997 -2.660832,3.340068 -3.877283,5.095296 -0.30138,0.500278 -0.573826,0.991412 -0.823722,1.484664 0.231746,-0.06607 0.479275,-0.102232 0.727087,-0.132292 0.395724,-0.03486 0.792698,-0.05589 1.189592,-0.07131 0.359735,-0.460238 0.717149,-0.923274 1.156518,-1.311548 0.30602,-0.270386 0.587905,-0.397358 0.821139,-0.416512 0.180354,-0.01481 0.32761,0.0387 0.438216,0.135909 0.139974,-0.134824 0.307844,-0.202055 0.475423,-0.202055 0.231074,0 0.46214,0.128146 0.620634,0.384473 0.7683,-1.051382 1.598136,-2.05545 2.529045,-2.969328 1.175285,-1.218142 2.063783,-2.268379 3.444234,-3.231327 1.038824,-0.80175 2.796687,-1.06546 4.040064,-1.460376 -0.08831,0.05671 -0.161201,0.110849 -0.07545,0.110071 0.02943,-2.67e-4 0.14217,-0.0019 0.179317,-0.0026 0.116991,0.267026 0.276074,0.534314 0.461987,0.743107 0.455896,0.511967 0.138751,0.239056 0.598414,0.749308 0.266637,0.220136 1.613118,0.746141 1.892907,0.949296 0.338511,0.245785 1.225856,0.888091 1.588534,1.096574 2.202763,1.266254 3.650965,2.005893 5.829101,2.633948 1.059848,0.305607 2.233618,-0.382564 3.302641,-0.235645 1.288368,0.110265 2.603614,0.04084 3.781681,-0.545186 0.690269,-0.343374 1.064384,-0.673187 1.685169,-1.140499 2.336952,-1.939161 4.574301,-4.072636 6.555155,-6.356718 1.444764,-1.609896 1.802881,-2.326561 3.3507,-3.841109 1.021253,-0.999297 1.459418,-1.555849 2.566769,-2.484086 1.848669,-1.480117 1.135564,-1.483063 3.254065,-2.556433 1.37531,-0.69683 2.964189,-2.518431 4.401798,-3.084566 2.145489,-0.708119 1.977919,-1.063436 4.258659,-1.154452 1.5443,-0.06163 2.68669,-0.258506 4.24366,-0.100252 1.88322,0.335323 2.20006,-0.05835 3.99873,0.478007 0.54914,0.163751 2.17529,0.693796 2.70164,0.920357 0.49966,0.215075 1.90002,0.688797 1.39681,0.482141 -1.83958,-0.75551 -0.60024,-0.78581 1.24437,0.824756 1.9176,1.835124 2.45874,1.610717 3.42408,4.03903 0.25117,0.774317 1.48844,2.525022 1.35496,3.369303 -0.14948,0.94542 -1.56708,1.29302 -2.1916,1.949235 -3.3682,2.878817 -7.10238,4.808779 -11.15281,6.466789 l 0.69867,0.805119 -0.25218,2.119767 0.41289,1.69137 3.98064,-2.422591 c 4.04517,-1.84012 6.50991,-3.661479 10.10067,-6.32933 0.70467,-0.719296 1.52673,-1.37315 1.7322,-2.411222 0.18177,-0.918293 0.14048,-1.764063 -0.1726,-2.596741 -1.00852,-2.447371 -1.28573,-4.246678 -3.18637,-6.148978 -2.15522,-1.977744 -0.72558,-1.542721 -5.04155,-4.048332 -0.4692,-0.272388 -1.74109,-0.59821 -2.24534,-0.798401 -1.74955,-0.694578 -3.65005,-0.984708 -5.49269,-1.292944 -1.18241,-0.115628 -1.92667,-0.22265 -2.88613,-0.237195 z M 49.241956,96.80081 c -0.0089,-0.01105 -0.02527,0.02684 -0.01757,0.03876 0.02517,0.03917 0.05269,0.07745 0.0832,0.113171 -0.0174,-0.06052 -0.03786,-0.117352 -0.06563,-0.151928 z m 0.138492,0.591695 c -0.0289,0.03189 -0.05714,0.06445 -0.0863,0.09612 0.03376,0.01443 0.0675,0.02857 0.100769,0.04393 -0.0043,-0.04672 -0.0098,-0.09336 -0.01447,-0.140043 z m -7.83208,7.206795 c -0.06861,0.0822 -0.07183,0.0841 0.01447,0.0605 -0.0056,-0.0198 -0.0084,-0.041 -0.01447,-0.0605 z" />
    <path
       style="fill:url(#linearGradient9);stroke:#000000;stroke-width:1.49428;stroke-linecap:round;stroke-dasharray:none;stroke-opacity:1;paint-order:stroke fill markers"
       d="m 113.80574,77.632119 0.0864,62.729331 c 0,0 -13.1097,28.13401 -13.10473,27.18272 l 0.47129,-90.144381 z"
       id="path1"
       sodipodi:nodetypes="ccscc" />
    <path
       style="fill:url(#linearGradient11);fill-opacity:1;stroke:#000000;stroke-width:1.49428;stroke-linecap:round;stroke-dasharray:none;stroke-opacity:1;paint-order:stroke fill markers"
       d="m 104.96836,77.632121 4.63897,0.123218 -0.0282,59.626891 c 0,0 -4.02402,10.66536 -4.62368,11.70512 z"
       id="path2"
       sodipodi:nodetypes="ccccc" />
    <path
       d="m 95.137626,81.235901 c 4.38059,0.122088 4.528485,-0.322342 5.920674,1.149635 0.002,3.201471 -0.10438,4.560065 -0.10438,4.560065 -3.975351,-0.503263 -10.896095,-0.306021 -10.896095,-0.306021 -3.8744,2.185522 -4.4938,2.853797 -3.0055,9.220964 0.62831,3.523503 1.5593,4.987196 2.05052,6.258746 0.44086,1.14123 1.36929,4.18364 3.046841,5.05462 0.89138,-0.0937 1.63712,0.41863 3.07527,1.04437 1.27795,0.55602 2.25509,1.67735 3.2892,2.66267 2.068234,1.97063 4.268484,1.21373 4.268484,1.21373 5.6775,9.36431 13.6033,10.6699 13.6033,10.6699 4.83379,1.5311 15.38046,8.44065 15.38046,8.44065 4.09368,3.07663 12.98215,15.56848 12.98215,15.56848 -4.31707,1.20315 8.19124,22.57867 8.19124,22.57867 -1.04086,3.54407 -5.9105,-1.10095 -7.08071,-0.61685 0.39508,2.41726 -1.91048,3.15452 -1.91048,3.15452 -1.60762,-5.57026 -2.40967,-4.73068 -2.40967,-4.73068 -0.40322,-0.12452 -0.2052,-1.99679 -0.48317,10.48056 l -2.43551,3.83794 c 0.73455,-8.2291 -0.85318,-11.13512 -0.85318,-11.13512 0,0 1.03197,-5.72144 -3.88555,-8.93178 -9.29022,-15.07077 -20.01119,-17.29551 -20.01119,-17.29551 -9.61426,-4.05593 -18.434014,-10.40584 -18.434014,-10.40584 -4.446831,-3.76205 -10.813301,-12.3851 -10.813301,-12.3851 -1.93598,-3.21071 -1.93631,-3.14721 -5.06687,-7.0864 -1.65638,-2.08422 -2.87396,-4.02867 -3.63544,-3.1767 -2.51628,1.23985 3.75739,10.16991 3.75739,10.16991 -4.66457,-2.649 -10.08672,-19.30361 -10.08672,-19.30361 -1.29143,-4.868558 -1.0075,-10.922491 1.23662,-13.49085 0,0 2.92114,-5.338184 8.48268,-6.398526 0,0 8.52595,-1.006069 15.826951,-0.8025 z"
       style="stroke-width:0.671158;stroke-linecap:round;paint-order:stroke fill markers"
       id="path242"
       sodipodi:nodetypes="cccccscsscccccccccccccccsccccccc" />
    <path
       style="fill:#000000;stroke:#000000;stroke-width:1.06124;stroke-linecap:round;stroke-dasharray:none;stroke-opacity:1;paint-order:stroke fill markers;fill-opacity:1"
       d="m 105.71089,74.118167 c 0,0 -0.18709,-19.437533 -0.0121,-19.029174 l 3.19251,4.046695 -0.0141,14.996027 z"
       id="path4"
       sodipodi:nodetypes="ccccc" />
    <path
       style="fill:#000000;fill-opacity:1;stroke:#000000;stroke-width:0.931296;stroke-linecap:round;stroke-dasharray:none;stroke-opacity:1;paint-order:stroke fill markers"
       d="M 123.74169,77.019291 81.822203,76.763626 76.961934,74.696281 123.78232,74.642616 Z"
       id="path3"
       sodipodi:nodetypes="ccccc" />
    <path
       style="fill:#ffffff;fill-opacity:1;stroke:#ffffff;stroke-width:0.561;stroke-linecap:round;stroke-dasharray:none;stroke-opacity:1;paint-order:stroke fill markers"
       d="m 107.30367,73.030666 0.52505,0.226055 -0.53963,0.182305 -0.49586,-0.20418 z"
       id="path19"
       sodipodi:nodetypes="ccccc" />
    <path
       style="fill:#ffffff;fill-opacity:1;stroke:#ffffff;stroke-width:0.561;stroke-linecap:round;stroke-dasharray:none;stroke-opacity:1;paint-order:stroke fill markers"
       d="m 107.33284,71.725375 0.52505,0.226055 -0.53963,0.182305 -0.49586,-0.20418 z"
       id="path20"
       sodipodi:nodetypes="ccccc" />
    <path
       style="fill:#ffffff;fill-opacity:1;stroke:#ffffff;stroke-width:0.561;stroke-linecap:round;stroke-dasharray:none;stroke-opacity:1;paint-order:stroke fill markers"
       d="m 107.34743,70.507589 0.52505,0.226055 -0.53963,0.182305 -0.49586,-0.20418 z"
       id="path21"
       sodipodi:nodetypes="ccccc" />
    <path
       style="fill:#ffffff;fill-opacity:1;stroke:#ffffff;stroke-width:0.561;stroke-linecap:round;stroke-dasharray:none;stroke-opacity:1;paint-order:stroke fill markers"
       d="m 107.30367,69.31812 0.52505,0.226055 -0.53963,0.182305 -0.49586,-0.20418 z"
       id="path22"
       sodipodi:nodetypes="ccccc" />
    <path
       style="fill:#ffffff;fill-opacity:1;stroke:#ffffff;stroke-width:0.561;stroke-linecap:round;stroke-dasharray:none;stroke-opacity:1;paint-order:stroke fill markers"
       d="m 107.33284,68.012829 0.52505,0.226055 -0.53963,0.182305 -0.49586,-0.20418 z"
       id="path23"
       sodipodi:nodetypes="ccccc" />
    <path
       style="fill:#ffffff;fill-opacity:1;stroke:#ffffff;stroke-width:0.561;stroke-linecap:round;stroke-dasharray:none;stroke-opacity:1;paint-order:stroke fill markers"
       d="m 107.34743,66.795043 0.52505,0.226055 -0.53963,0.182305 -0.49586,-0.20418 z"
       id="path24"
       sodipodi:nodetypes="ccccc" />
    <path
       style="fill:#ffffff;fill-opacity:1;stroke:#ffffff;stroke-width:0.561;stroke-linecap:round;stroke-dasharray:none;stroke-opacity:1;paint-order:stroke fill markers"
       d="m 107.30367,65.626199 0.52505,0.226055 -0.53963,0.182305 -0.49586,-0.20418 z"
       id="path25"
       sodipodi:nodetypes="ccccc" />
    <path
       style="fill:#ffffff;fill-opacity:1;stroke:#ffffff;stroke-width:0.561;stroke-linecap:round;stroke-dasharray:none;stroke-opacity:1;paint-order:stroke fill markers"
       d="m 107.33284,64.320908 0.52505,0.226055 -0.53963,0.182305 -0.49586,-0.20418 z"
       id="path26"
       sodipodi:nodetypes="ccccc" />
    <path
       style="fill:#ffffff;fill-opacity:1;stroke:#ffffff;stroke-width:0.561;stroke-linecap:round;stroke-dasharray:none;stroke-opacity:1;paint-order:stroke fill markers"
       d="m 107.34743,63.103122 0.52505,0.226055 -0.53963,0.182305 -0.49586,-0.20418 z"
       id="path27"
       sodipodi:nodetypes="ccccc" />
    <path
       style="fill:#ffffff;fill-opacity:1;stroke:#ffffff;stroke-width:0.561;stroke-linecap:round;stroke-dasharray:none;stroke-opacity:1;paint-order:stroke fill markers"
       d="m 107.30367,61.913653 0.52505,0.226055 -0.53963,0.182305 -0.49586,-0.20418 z"
       id="path28"
       sodipodi:nodetypes="ccccc" />
    <path
       style="fill:#ffffff;fill-opacity:1;stroke:#ffffff;stroke-width:0.561;stroke-linecap:round;stroke-dasharray:none;stroke-opacity:1;paint-order:stroke fill markers"
       d="m 107.33284,60.608362 0.52505,0.226055 -0.53963,0.182305 -0.49586,-0.20418 z"
       id="path29"
       sodipodi:nodetypes="ccccc" />
    <path
       style="fill:none;fill-opacity:1;stroke:none;stroke-width:0.561001;stroke-linecap:butt;stroke-linejoin:bevel;stroke-dasharray:none;stroke-opacity:1;paint-order:stroke markers fill"
       d="m 132.33163,170.7771 c 0.98544,-2.96807 3.65267,-5.12511 6.37947,-6.32282 3.92481,-1.72392 8.02431,-3.82877 12.41375,-3.26013 2.54524,0.32972 5.26283,-0.29107 7.59762,0.96781 2.90343,1.56549 6.54504,1.18294 9.25591,3.03627 4.0408,2.76255 5.70677,7.84501 6.29458,12.45727 1.00783,7.908 4.19657,15.87183 2.8188,23.76255 -0.12468,0.71407 0.093,2.00394 -0.70459,2.35945"
       id="path155"
       inkscape:original-d="m 132.33163,170.7771 c 0.54471,-2.10038 2.71804,-3.89916 4.45505,-5.11506 2.05171,-1.4362 1.70505,-1.06947 4.12505,-2.14503 5.32565,-2.36696 7.44601,-2.61079 13.03516,-2.14503 2.4263,0.20219 1.17506,-0.3061 3.46504,0.33001 1.1909,0.3308 2.29249,0.92916 3.46505,1.32001 4.04001,1.34667 6.69937,0.81124 9.40511,4.29006 3.27598,4.21197 3.93832,9.57212 4.62006,14.68518 0.37349,2.80115 0.9299,5.60626 1.32002,8.4151 0.17709,1.2751 1.78516,13.36516 0.165,13.36516"
       inkscape:path-effect="#path-effect155" />
    <path
       style="fill:url(#linearGradient260);fill-opacity:1;stroke:#000000;stroke-width:0.561001;stroke-linecap:butt;stroke-linejoin:bevel;stroke-dasharray:none;stroke-opacity:1;paint-order:stroke markers fill"
       d="m 128.37158,145.36679 c 2.00415,0.11265 3.92505,1.24122 4.99905,2.93705 0.58976,0.93122 0.92617,1.99835 1.20732,3.06415 0.28116,1.0658 0.51496,2.14902 0.92529,3.17206 0.66991,1.67027 1.79929,3.15253 2.25738,4.89286 0.1207,0.45854 0.1943,0.93362 0.38881,1.36604 0.0973,0.21621 0.22518,0.42066 0.39319,0.58792 0.16802,0.16726 0.37772,0.29628 0.60855,0.35034 0.19614,0.0459 0.40442,0.0367 0.59684,-0.023 0.19242,-0.0596 0.36869,-0.16912 0.51014,-0.31255 0.28291,-0.28686 0.41713,-0.70601 0.38132,-1.10731 -0.0247,-0.27729 -0.12536,-0.54426 -0.2658,-0.78462 -0.14044,-0.24037 -0.32006,-0.45571 -0.51113,-0.65818 -0.38214,-0.40493 -0.81709,-0.7678 -1.12006,-1.23494 -0.35786,-0.55177 -0.50648,-1.20989 -0.63578,-1.85471 -0.2242,-1.1181 -0.41014,-2.24583 -0.7182,-3.34379 -0.30806,-1.09796 -0.74441,-2.17389 -1.42445,-3.08928 -1.05264,-1.41693 -2.62754,-2.366 -4.26724,-3.01954 -1.0721,-0.42731 -2.18836,-0.74371 -3.32523,-0.94252 z"
       id="path252"
       inkscape:path-effect="#path-effect252;#path-effect253"
       inkscape:original-d="m 128.37158,145.36679 c 3.82184,0.48348 5.42858,2.73908 6.27007,6.10507 0.53786,2.15141 1.21988,4.43059 2.14503,6.43508 0.50043,1.08427 1.32676,1.82851 1.81502,2.80504 0.0494,0.0988 0.75173,1.24672 0.49501,0.99001 -0.36477,-0.36477 1.24913,-0.91913 1.48502,-1.15502 0.46376,-0.46376 -1.73635,-2.75514 -2.14503,-3.30004 -0.29348,-0.3913 -0.2074,-1.05591 -0.33,-1.48501 -1.3058,-4.57031 -1.19957,-7.34392 -5.94007,-9.24012 -1.2836,-0.51344 -2.28868,-1.53161 -3.79505,-1.15501 z"
       transform="translate(-0.49500609,-9.9001218)" />
    <path
       style="fill:url(#linearGradient256);fill-opacity:1;stroke:#000000;stroke-width:0.561001;stroke-linecap:butt;stroke-linejoin:bevel;stroke-dasharray:none;stroke-opacity:1;paint-order:stroke markers fill"
       d="m 78.210962,92.731139 c -0.512328,4.188222 0.122066,8.511001 1.816167,12.375411 1.018757,2.32389 2.405293,4.47006 3.915407,6.50914 2.680015,3.61879 5.760552,6.92578 8.99532,10.05857 4.734141,4.5849 9.843994,8.83494 15.563214,12.10967 3.53787,2.02572 7.28697,3.66614 10.80536,5.7255 0.86033,0.50357 1.74503,1.04517 2.73743,1.13945 0.4962,0.0471 1.01127,-0.0255 1.45062,-0.26088 0.43935,-0.23539 0.79554,-0.64289 0.91705,-1.12629 0.0724,-0.2881 0.0609,-0.5951 -0.0206,-0.88078 -0.0815,-0.28568 -0.23157,-0.55006 -0.42536,-0.77521 -0.38757,-0.45031 -0.93936,-0.73579 -1.51231,-0.89298 -1.14591,-0.31438 -2.3705,-0.14876 -3.54025,-0.35767 -1.06253,-0.18977 -2.0493,-0.68402 -2.95184,-1.27596 -0.90255,-0.59195 -1.73424,-1.28439 -2.60478,-1.92247 -2.30017,-1.68593 -4.85651,-2.98219 -7.3621,-4.34423 -8.461641,-4.59975 -16.800498,-10.3893 -21.2516,-18.93007 -1.1478,-2.2024 -2.026429,-4.57007 -3.528829,-6.54764 -0.988127,-1.30065 -2.223619,-2.40037 -3.184985,-3.720917 -0.480683,-0.660275 -0.892422,-1.378243 -1.142338,-2.155778 -0.249915,-0.777535 -0.332984,-1.618526 -0.160595,-2.416837 0.197424,-0.914245 0.73525,-1.750863 1.485019,-2.310029 z"
       id="path253"
       inkscape:path-effect="#path-effect254;#path-effect255"
       inkscape:original-d="m 78.210962,92.731139 c -2.022898,3.763005 -0.244605,8.634831 1.650018,12.045151 0.474409,0.85393 0.675008,1.94102 1.155015,2.80503 0.467122,0.84082 1.128202,1.3623 1.650021,2.14503 1.685478,2.52821 3.434368,5.02568 5.280065,7.42509 2.632943,3.42283 6.57661,5.3214 9.735118,8.0851 4.734371,4.14257 9.474531,8.20231 15.180191,11.05514 1.70345,0.85172 10.24812,6.23407 11.88014,2.97003 0.0492,-0.0984 -0.25222,0.0778 -0.33,0 -0.4939,-0.4939 -0.14923,-0.58454 -0.82501,-0.99001 -0.3125,-0.1875 -0.92345,0.0333 -1.32002,-0.165 -1.48592,-0.74296 -2.72951,-1.44726 -4.12505,-2.14503 -0.8135,-0.40675 -1.78594,-0.72797 -2.64003,-1.15501 -0.86709,-0.43355 -1.34565,-1.15041 -2.14503,-1.65002 -1.01843,-0.63652 -2.11049,-1.18454 -3.13504,-1.81502 -0.33629,-0.20696 -0.92842,-0.85949 -1.32001,-0.99002 -1.17913,-0.39304 -2.2567,-1.06978 -3.30004,-1.81502 -5.871104,-4.19364 -11.223143,-8.91311 -16.335202,-14.02517 -1.953406,-1.95341 -4.295947,-4.05139 -5.775071,-6.27008 -0.289433,-0.43415 -0.279091,-1.01001 -0.495007,-1.48502 -0.765185,-1.6834 -1.73805,-3.32649 -2.640033,-4.95006 -1.000797,-1.80143 -1.891361,-3.61772 -2.805033,-5.445065 -0.232048,-0.464097 -0.660927,-0.82777 -0.825011,-1.320017 -0.354777,-1.064328 1.865315,-0.788839 1.485019,-2.310029 z" />
  </g>
</svg>
